# This file uses centimeters as units for non-parametric coordinates.

mtllib barrier.mtl
g default
v 18.809141 -60.867619 -6.111460
v 11.624687 -60.867619 -16.000010
v 0.000000 -60.867619 -19.777098
v -11.624685 -60.867619 -16.000006
v -18.809134 -60.867619 -6.111458
v -18.809134 -60.867619 6.111458
v -11.624683 -60.867619 16.000004
v -0.000001 -60.867619 19.777090
v 11.624681 -60.867619 16.000002
v 18.809130 -60.867619 6.111456
v 35.777111 -51.777088 -11.624687
v 22.111469 -51.777088 -30.433826
v 0.000000 -51.777088 -37.618275
v -22.111465 -51.777088 -30.433819
v -35.777096 -51.777088 -11.624682
v -35.777096 -51.777088 11.624682
v -22.111460 -51.777088 30.433813
v -0.000001 -51.777088 37.618259
v 22.111456 -51.777088 30.433811
v 35.777088 -51.777088 11.624681
v 49.242970 -37.618256 -16.000010
v 30.433826 -37.618256 -41.888569
v 0.000000 -37.618256 -51.777111
v -30.433821 -37.618256 -41.888561
v -49.242950 -37.618256 -16.000004
v -49.242950 -37.618256 16.000004
v -30.433815 -37.618256 41.888550
v -0.000002 -37.618256 51.777096
v 30.433809 -37.618256 41.888546
v 49.242939 -37.618256 16.000000
v 57.888584 -19.777086 -18.809139
v 35.777111 -19.777086 -49.242966
v 0.000000 -19.777086 -60.867649
v -35.777103 -19.777086 -49.242958
v -57.888561 -19.777086 -18.809134
v -57.888561 -19.777086 18.809134
v -35.777096 -19.777086 49.242947
v -0.000002 -19.777086 60.867626
v 35.777088 -19.777086 49.242943
v 57.888546 -19.777086 18.809130
v 60.867657 0.000000 -19.777100
v 37.618279 0.000000 -51.777119
v 0.000000 0.000000 -64.000031
v -37.618271 0.000000 -51.777107
v -60.867634 0.000000 -19.777092
v -60.867634 0.000000 19.777092
v -37.618263 0.000000 51.777096
v -0.000002 0.000000 64.000008
v 37.618256 0.000000 51.777092
v 60.867619 0.000000 19.777088
v 57.888584 19.777086 -18.809139
v 35.777111 19.777086 -49.242966
v 0.000000 19.777086 -60.867649
v -35.777103 19.777086 -49.242958
v -57.888561 19.777086 -18.809134
v -57.888561 19.777086 18.809134
v -35.777096 19.777086 49.242947
v -0.000002 19.777086 60.867626
v 35.777088 19.777086 49.242943
v 57.888546 19.777086 18.809130
v 49.242970 37.618256 -16.000010
v 30.433826 37.618256 -41.888569
v 0.000000 37.618256 -51.777111
v -30.433821 37.618256 -41.888561
v -49.242950 37.618256 -16.000004
v -49.242950 37.618256 16.000004
v -30.433815 37.618256 41.888550
v -0.000002 37.618256 51.777096
v 30.433809 37.618256 41.888546
v 49.242939 37.618256 16.000000
v 35.777111 51.777088 -11.624687
v 22.111469 51.777088 -30.433826
v 0.000000 51.777088 -37.618275
v -22.111465 51.777088 -30.433819
v -35.777096 51.777088 -11.624682
v -35.777096 51.777088 11.624682
v -22.111460 51.777088 30.433813
v -0.000001 51.777088 37.618259
v 22.111456 51.777088 30.433811
v 35.777088 51.777088 11.624681
v 18.809141 60.867619 -6.111460
v 11.624687 60.867619 -16.000010
v 0.000000 60.867619 -19.777098
v -11.624685 60.867619 -16.000006
v -18.809134 60.867619 -6.111458
v -18.809134 60.867619 6.111458
v -11.624683 60.867619 16.000004
v -0.000001 60.867619 19.777090
v 11.624681 60.867619 16.000002
v 18.809130 60.867619 6.111456
v 0.000000 -64.000000 0.000000
v 0.000000 64.000000 0.000000
vt 0.000000 0.100000
vt 0.100000 0.100000
vt 0.200000 0.100000
vt 0.300000 0.100000
vt 0.400000 0.100000
vt 0.500000 0.100000
vt 0.600000 0.100000
vt 0.700000 0.100000
vt 0.800000 0.100000
vt 0.900000 0.100000
vt 1.000000 0.100000
vt 0.000000 0.200000
vt 0.100000 0.200000
vt 0.200000 0.200000
vt 0.300000 0.200000
vt 0.400000 0.200000
vt 0.500000 0.200000
vt 0.600000 0.200000
vt 0.700000 0.200000
vt 0.800000 0.200000
vt 0.900000 0.200000
vt 1.000000 0.200000
vt 0.000000 0.300000
vt 0.100000 0.300000
vt 0.200000 0.300000
vt 0.300000 0.300000
vt 0.400000 0.300000
vt 0.500000 0.300000
vt 0.600000 0.300000
vt 0.700000 0.300000
vt 0.800000 0.300000
vt 0.900000 0.300000
vt 1.000000 0.300000
vt 0.000000 0.400000
vt 0.100000 0.400000
vt 0.200000 0.400000
vt 0.300000 0.400000
vt 0.400000 0.400000
vt 0.500000 0.400000
vt 0.600000 0.400000
vt 0.700000 0.400000
vt 0.800000 0.400000
vt 0.900000 0.400000
vt 1.000000 0.400000
vt 0.000000 0.500000
vt 0.100000 0.500000
vt 0.200000 0.500000
vt 0.300000 0.500000
vt 0.400000 0.500000
vt 0.500000 0.500000
vt 0.600000 0.500000
vt 0.700000 0.500000
vt 0.800000 0.500000
vt 0.900000 0.500000
vt 1.000000 0.500000
vt 0.000000 0.600000
vt 0.100000 0.600000
vt 0.200000 0.600000
vt 0.300000 0.600000
vt 0.400000 0.600000
vt 0.500000 0.600000
vt 0.600000 0.600000
vt 0.700000 0.600000
vt 0.800000 0.600000
vt 0.900000 0.600000
vt 1.000000 0.600000
vt 0.000000 0.700000
vt 0.100000 0.700000
vt 0.200000 0.700000
vt 0.300000 0.700000
vt 0.400000 0.700000
vt 0.500000 0.700000
vt 0.600000 0.700000
vt 0.700000 0.700000
vt 0.800000 0.700000
vt 0.900000 0.700000
vt 1.000000 0.700000
vt 0.000000 0.800000
vt 0.100000 0.800000
vt 0.200000 0.800000
vt 0.300000 0.800000
vt 0.400000 0.800000
vt 0.500000 0.800000
vt 0.600000 0.800000
vt 0.700000 0.800000
vt 0.800000 0.800000
vt 0.900000 0.800000
vt 1.000000 0.800000
vt 0.000000 0.900000
vt 0.100000 0.900000
vt 0.200000 0.900000
vt 0.300000 0.900000
vt 0.400000 0.900000
vt 0.500000 0.900000
vt 0.600000 0.900000
vt 0.700000 0.900000
vt 0.800000 0.900000
vt 0.900000 0.900000
vt 1.000000 0.900000
vt 0.075000 0.000000
vt 0.175000 0.000000
vt 0.275000 0.000000
vt 0.375000 0.000000
vt 0.475000 0.000000
vt 0.575000 0.000000
vt 0.675000 0.000000
vt 0.775000 0.000000
vt 0.875000 0.000000
vt 0.975000 0.000000
vt 0.025000 1.000000
vt 0.125000 1.000000
vt 0.225000 1.000000
vt 0.325000 1.000000
vt 0.425000 1.000000
vt 0.525000 1.000000
vt 0.625000 1.000000
vt 0.725000 1.000000
vt 0.825000 1.000000
vt 0.925000 1.000000
vn 0.235368 -0.916327 -0.323956
vn 0.380834 -0.916327 -0.123740
vn 0.000000 -1.000000 -0.000000
vn -0.000000 -0.916327 -0.400432
vn -0.235368 -0.916326 -0.323956
vn -0.380834 -0.916326 -0.123740
vn -0.380834 -0.916326 0.123740
vn -0.235368 -0.916326 0.323956
vn 0.000000 -0.916326 0.400432
vn 0.235368 -0.916326 0.323956
vn 0.380834 -0.916326 0.123741
vn 0.372502 -0.773548 -0.512705
vn 0.602721 -0.773548 -0.195836
vn -0.000000 -0.773548 -0.633738
vn -0.372502 -0.773548 -0.512705
vn -0.602721 -0.773548 -0.195836
vn -0.602721 -0.773548 0.195836
vn -0.372502 -0.773548 0.512705
vn 0.000000 -0.773548 0.633738
vn 0.372502 -0.773548 0.512705
vn 0.602721 -0.773548 0.195836
vn 0.487783 -0.557962 -0.671376
vn 0.789250 -0.557962 -0.256442
vn -0.000000 -0.557962 -0.829866
vn -0.487783 -0.557962 -0.671376
vn -0.789250 -0.557962 -0.256443
vn -0.789250 -0.557962 0.256443
vn -0.487783 -0.557962 0.671376
vn 0.000000 -0.557962 0.829866
vn 0.487783 -0.557962 0.671376
vn 0.789250 -0.557962 0.256443
vn 0.562181 -0.291930 -0.773776
vn 0.909628 -0.291930 -0.295556
vn -0.000000 -0.291930 -0.956440
vn -0.562181 -0.291930 -0.773776
vn -0.909628 -0.291930 -0.295556
vn -0.909628 -0.291930 0.295556
vn -0.562181 -0.291930 0.773776
vn 0.000000 -0.291930 0.956440
vn 0.562181 -0.291930 0.773776
vn 0.909628 -0.291930 0.295557
vn 0.587785 -0.000000 -0.809017
vn 0.951057 -0.000000 -0.309017
vn -0.000000 -0.000000 -1.000000
vn -0.587785 -0.000000 -0.809017
vn -0.951057 -0.000000 -0.309017
vn -0.951057 -0.000000 0.309017
vn -0.587785 0.000000 0.809017
vn 0.000000 0.000000 1.000000
vn 0.587785 0.000000 0.809017
vn 0.951056 0.000000 0.309017
vn 0.562181 0.291930 -0.773776
vn 0.909628 0.291930 -0.295556
vn -0.000000 0.291930 -0.956440
vn -0.562181 0.291930 -0.773776
vn -0.909628 0.291930 -0.295556
vn -0.909628 0.291930 0.295556
vn -0.562181 0.291930 0.773776
vn 0.000000 0.291930 0.956440
vn 0.562181 0.291930 0.773776
vn 0.909628 0.291930 0.295557
vn 0.487783 0.557962 -0.671376
vn 0.789250 0.557962 -0.256442
vn -0.000000 0.557962 -0.829866
vn -0.487783 0.557962 -0.671376
vn -0.789250 0.557962 -0.256443
vn -0.789250 0.557962 0.256443
vn -0.487783 0.557962 0.671376
vn 0.000000 0.557962 0.829866
vn 0.487783 0.557962 0.671376
vn 0.789250 0.557962 0.256443
vn 0.372502 0.773548 -0.512705
vn 0.602721 0.773548 -0.195836
vn -0.000000 0.773548 -0.633738
vn -0.372502 0.773548 -0.512705
vn -0.602721 0.773548 -0.195836
vn -0.602721 0.773548 0.195836
vn -0.372502 0.773548 0.512705
vn 0.000000 0.773548 0.633738
vn 0.372502 0.773548 0.512705
vn 0.602721 0.773548 0.195836
vn 0.235368 0.916327 -0.323956
vn 0.380834 0.916327 -0.123740
vn -0.000000 0.916327 -0.400432
vn -0.235368 0.916326 -0.323956
vn -0.380834 0.916326 -0.123740
vn -0.380834 0.916326 0.123740
vn -0.235368 0.916326 0.323956
vn 0.000000 0.916326 0.400432
vn 0.235368 0.916326 0.323956
vn 0.380834 0.916326 0.123741
vn 0.000000 1.000000 0.000000
s 1
g pSphere1
usemtl blinn1SG
f 2/2/1 1/1/2 91/100/3
f 3/3/4 2/2/1 91/101/3
f 4/4/5 3/3/4 91/102/3
f 5/5/6 4/4/5 91/103/3
f 6/6/7 5/5/6 91/104/3
f 7/7/8 6/6/7 91/105/3
f 8/8/9 7/7/8 91/106/3
f 9/9/10 8/8/9 91/107/3
f 10/10/11 9/9/10 91/108/3
f 1/11/2 10/10/11 91/109/3
f 2/2/1 12/13/12 11/12/13 1/1/2
f 3/3/4 13/14/14 12/13/12 2/2/1
f 4/4/5 14/15/15 13/14/14 3/3/4
f 5/5/6 15/16/16 14/15/15 4/4/5
f 6/6/7 16/17/17 15/16/16 5/5/6
f 7/7/8 17/18/18 16/17/17 6/6/7
f 8/8/9 18/19/19 17/18/18 7/7/8
f 9/9/10 19/20/20 18/19/19 8/8/9
f 10/10/11 20/21/21 19/20/20 9/9/10
f 1/11/2 11/22/13 20/21/21 10/10/11
f 12/13/12 22/24/22 21/23/23 11/12/13
f 13/14/14 23/25/24 22/24/22 12/13/12
f 14/15/15 24/26/25 23/25/24 13/14/14
f 15/16/16 25/27/26 24/26/25 14/15/15
f 16/17/17 26/28/27 25/27/26 15/16/16
f 17/18/18 27/29/28 26/28/27 16/17/17
f 18/19/19 28/30/29 27/29/28 17/18/18
f 19/20/20 29/31/30 28/30/29 18/19/19
f 20/21/21 30/32/31 29/31/30 19/20/20
f 11/22/13 21/33/23 30/32/31 20/21/21
f 22/24/22 32/35/32 31/34/33 21/23/23
f 23/25/24 33/36/34 32/35/32 22/24/22
f 24/26/25 34/37/35 33/36/34 23/25/24
f 25/27/26 35/38/36 34/37/35 24/26/25
f 26/28/27 36/39/37 35/38/36 25/27/26
f 27/29/28 37/40/38 36/39/37 26/28/27
f 28/30/29 38/41/39 37/40/38 27/29/28
f 29/31/30 39/42/40 38/41/39 28/30/29
f 30/32/31 40/43/41 39/42/40 29/31/30
f 21/33/23 31/44/33 40/43/41 30/32/31
f 32/35/32 42/46/42 41/45/43 31/34/33
f 33/36/34 43/47/44 42/46/42 32/35/32
f 34/37/35 44/48/45 43/47/44 33/36/34
f 35/38/36 45/49/46 44/48/45 34/37/35
f 36/39/37 46/50/47 45/49/46 35/38/36
f 37/40/38 47/51/48 46/50/47 36/39/37
f 38/41/39 48/52/49 47/51/48 37/40/38
f 39/42/40 49/53/50 48/52/49 38/41/39
f 40/43/41 50/54/51 49/53/50 39/42/40
f 31/44/33 41/55/43 50/54/51 40/43/41
f 42/46/42 52/57/52 51/56/53 41/45/43
f 43/47/44 53/58/54 52/57/52 42/46/42
f 44/48/45 54/59/55 53/58/54 43/47/44
f 45/49/46 55/60/56 54/59/55 44/48/45
f 46/50/47 56/61/57 55/60/56 45/49/46
f 47/51/48 57/62/58 56/61/57 46/50/47
f 48/52/49 58/63/59 57/62/58 47/51/48
f 49/53/50 59/64/60 58/63/59 48/52/49
f 50/54/51 60/65/61 59/64/60 49/53/50
f 41/55/43 51/66/53 60/65/61 50/54/51
f 52/57/52 62/68/62 61/67/63 51/56/53
f 53/58/54 63/69/64 62/68/62 52/57/52
f 54/59/55 64/70/65 63/69/64 53/58/54
f 55/60/56 65/71/66 64/70/65 54/59/55
f 56/61/57 66/72/67 65/71/66 55/60/56
f 57/62/58 67/73/68 66/72/67 56/61/57
f 58/63/59 68/74/69 67/73/68 57/62/58
f 59/64/60 69/75/70 68/74/69 58/63/59
f 60/65/61 70/76/71 69/75/70 59/64/60
f 51/66/53 61/77/63 70/76/71 60/65/61
f 62/68/62 72/79/72 71/78/73 61/67/63
f 63/69/64 73/80/74 72/79/72 62/68/62
f 64/70/65 74/81/75 73/80/74 63/69/64
f 65/71/66 75/82/76 74/81/75 64/70/65
f 66/72/67 76/83/77 75/82/76 65/71/66
f 67/73/68 77/84/78 76/83/77 66/72/67
f 68/74/69 78/85/79 77/84/78 67/73/68
f 69/75/70 79/86/80 78/85/79 68/74/69
f 70/76/71 80/87/81 79/86/80 69/75/70
f 61/77/63 71/88/73 80/87/81 70/76/71
f 72/79/72 82/90/82 81/89/83 71/78/73
f 73/80/74 83/91/84 82/90/82 72/79/72
f 74/81/75 84/92/85 83/91/84 73/80/74
f 75/82/76 85/93/86 84/92/85 74/81/75
f 76/83/77 86/94/87 85/93/86 75/82/76
f 77/84/78 87/95/88 86/94/87 76/83/77
f 78/85/79 88/96/89 87/95/88 77/84/78
f 79/86/80 89/97/90 88/96/89 78/85/79
f 80/87/81 90/98/91 89/97/90 79/86/80
f 71/88/73 81/99/83 90/98/91 80/87/81
f 82/90/82 92/110/92 81/89/83
f 83/91/84 92/111/92 82/90/82
f 84/92/85 92/112/92 83/91/84
f 85/93/86 92/113/92 84/92/85
f 86/94/87 92/114/92 85/93/86
f 87/95/88 92/115/92 86/94/87
f 88/96/89 92/116/92 87/95/88
f 89/97/90 92/117/92 88/96/89
f 90/98/91 92/118/92 89/97/90
f 81/99/83 92/119/92 90/98/91
