# This file uses centimeters as units for non-parametric coordinates.

mtllib COIN.mtl
g default
v -0.500000 -0.500000 0.000000
v 0.000000 -0.500000 0.050000
v 0.500000 -0.500000 0.000000
v -0.500000 0.000000 0.050000
v 0.000000 0.000000 0.138339
v 0.500000 0.000000 0.050000
v -0.500000 0.500000 0.000000
v 0.000000 0.500000 0.050000
v 0.500000 0.500000 0.000000
v -0.500000 0.500000 0.000000
v 0.000000 0.727322 0.000000
v 0.500000 0.500000 0.000000
v 0.000000 0.500000 -0.050000
v -0.500000 0.000000 -0.050000
v 0.000000 0.000000 -0.138339
v 0.500000 0.000000 -0.050000
v 0.000000 -0.500000 -0.050000
v -0.500000 -0.500000 0.000000
v 0.000000 -0.727322 0.000000
v 0.500000 -0.500000 0.000000
v 0.596001 0.000000 0.000000
v -0.596001 0.000000 0.000000
vt 0.375000 0.000000
vt 0.500000 0.000000
vt 0.625000 0.000000
vt 0.375000 0.125000
vt 0.500000 0.125000
vt 0.625000 0.125000
vt 0.375000 0.250000
vt 0.500000 0.250000
vt 0.625000 0.250000
vt 0.375000 0.375000
vt 0.500000 0.375000
vt 0.625000 0.375000
vt 0.375000 0.500000
vt 0.500000 0.500000
vt 0.625000 0.500000
vt 0.375000 0.625000
vt 0.500000 0.625000
vt 0.625000 0.625000
vt 0.375000 0.750000
vt 0.500000 0.750000
vt 0.625000 0.750000
vt 0.375000 0.875000
vt 0.500000 0.875000
vt 0.625000 0.875000
vt 0.375000 1.000000
vt 0.500000 1.000000
vt 0.625000 1.000000
vt 0.875000 0.000000
vt 0.750000 0.000000
vt 0.875000 0.125000
vt 0.750000 0.125000
vt 0.875000 0.250000
vt 0.750000 0.250000
vt 0.125000 0.000000
vt 0.250000 0.000000
vt 0.125000 0.125000
vt 0.250000 0.125000
vt 0.125000 0.250000
vt 0.250000 0.250000
vn -0.135765 -0.135765 0.981395
vn 0.000000 -0.137034 0.990566
vn 0.000000 -0.000000 1.000000
vn -0.137034 0.000000 0.990566
vn 0.135765 -0.135765 0.981395
vn 0.137034 0.000000 0.990566
vn 0.000000 0.137034 0.990566
vn -0.135765 0.135765 0.981395
vn 0.135765 0.135765 0.981395
vn -0.097203 0.213800 0.972029
vn 0.000000 0.214817 0.976654
vn 0.000000 1.000000 0.000000
vn -0.413877 0.910333 0.000000
vn 0.097203 0.213800 0.972029
vn 0.413877 0.910333 0.000000
vn 0.000000 0.214817 -0.976654
vn -0.097203 0.213800 -0.972029
vn 0.097203 0.213800 -0.972029
vn -0.135765 0.135765 -0.981395
vn 0.000000 0.137034 -0.990566
vn 0.000000 0.000000 -1.000000
vn -0.137034 0.000000 -0.990566
vn 0.135765 0.135765 -0.981395
vn 0.137034 0.000000 -0.990566
vn 0.000000 -0.137034 -0.990566
vn -0.135765 -0.135765 -0.981395
vn 0.135765 -0.135765 -0.981395
vn -0.097203 -0.213800 -0.972029
vn 0.000000 -0.214818 -0.976654
vn 0.000000 -1.000000 0.000000
vn -0.413877 -0.910333 0.000000
vn 0.097203 -0.213800 -0.972029
vn 0.413877 -0.910333 0.000000
vn 0.000000 -0.214818 0.976654
vn -0.097203 -0.213800 0.972029
vn 0.097203 -0.213800 0.972029
vn 0.982062 -0.188559 0.000000
vn 0.460123 -0.088345 -0.883449
vn 0.461929 0.000000 -0.886917
vn 1.000000 0.000000 0.000000
vn 0.460123 -0.088345 0.883449
vn 0.461929 0.000000 0.886917
vn 0.460123 0.088345 -0.883449
vn 0.982062 0.188559 0.000000
vn 0.460123 0.088345 0.883449
vn -0.460123 -0.088345 -0.883449
vn -0.982062 -0.188559 0.000000
vn -1.000000 0.000000 0.000000
vn -0.461929 0.000000 -0.886917
vn -0.460123 -0.088345 0.883449
vn -0.461929 0.000000 0.886917
vn -0.982062 0.188559 0.000000
vn -0.460123 0.088345 -0.883449
vn -0.460123 0.088345 0.883449
s 1
g pCube1
usemtl initialShadingGroup
f 1/1/1 2/2/2 5/5/3 4/4/4
f 2/2/2 3/3/5 6/6/6 5/5/3
f 4/4/4 5/5/3 8/8/7 7/7/8
f 5/5/3 6/6/6 9/9/9 8/8/7
s 2
f 7/7/10 8/8/11 11/11/12 10/10/13
f 8/8/11 9/9/14 12/12/15 11/11/12
f 10/10/13 11/11/12 13/14/16 7/13/17
f 11/11/12 12/12/15 9/15/18 13/14/16
s 3
f 7/13/19 13/14/20 15/17/21 14/16/22
f 13/14/20 9/15/23 16/18/24 15/17/21
f 14/16/22 15/17/21 17/20/25 1/19/26
f 15/17/21 16/18/24 3/21/27 17/20/25
s 4
f 1/19/28 17/20/29 19/23/30 18/22/31
f 17/20/29 3/21/32 20/24/33 19/23/30
f 18/22/31 19/23/30 2/26/34 1/25/35
f 19/23/30 20/24/33 3/27/36 2/26/34
s 5
f 20/29/37 3/28/38 16/30/39 21/31/40
f 3/3/41 20/29/37 21/31/40 6/6/42
f 21/31/40 16/30/39 9/32/43 12/33/44
f 6/6/42 21/31/40 12/33/44 9/9/45
s 6
f 1/34/46 18/35/47 22/37/48 14/36/49
f 18/35/47 1/1/50 4/4/51 22/37/48
f 14/36/49 22/37/48 10/39/52 7/38/53
f 22/37/48 4/4/51 7/7/54 10/39/52
