# This file uses centimeters as units for non-parametric coordinates.

mtllib UP_LEFT_BLOCK.mtl
g default
v -32.000000 -32.000000 32.000000
v 32.000000 -32.000000 32.000000
v -31.696104 32.000000 32.000000
v -31.802376 32.000000 -32.000000
v -32.000000 -32.000000 -32.000000
v 32.000000 -32.000000 -32.000000
vt 0.375000 0.000000
vt 0.625000 0.000000
vt 0.500000 0.250000
vt 0.500000 0.500000
vt 0.375000 0.750000
vt 0.625000 0.750000
vt 0.375000 1.000000
vt 0.625000 1.000000
vt 0.875000 0.000000
vt 0.875000 0.250000
vt 0.125000 0.000000
vt 0.125000 0.250000
vn 0.000000 0.000000 1.000000
vn 0.000000 0.000000 1.000000
vn 0.000000 0.000000 1.000000
vn 0.000000 0.000000 -1.000000
vn 0.000000 0.000000 -1.000000
vn 0.000000 0.000000 -1.000000
vn 0.000000 -1.000000 0.000000
vn 0.000000 -1.000000 0.000000
vn 0.000000 -1.000000 0.000000
vn 0.000000 -1.000000 0.000000
vn 0.708493 0.705717 -0.000588
vn 0.708493 0.705717 -0.000588
vn 0.708493 0.705717 -0.000588
vn 0.708493 0.705717 -0.000588
vn -0.999992 0.003918 0.000830
vn -0.999992 0.003918 0.000830
vn -0.999992 0.003918 0.000830
vn -0.999992 0.003918 0.000830
s off
g pCube1
usemtl initialShadingGroup
f 1/1/1 2/2/2 3/3/3
f 4/4/4 6/6/5 5/5/6
f 5/5/7 6/6/8 2/8/9 1/7/10
f 2/2/11 6/9/12 4/10/13 3/3/14
f 5/11/15 1/1/16 3/3/17 4/12/18
