# This file uses centimeters as units for non-parametric coordinates.

mtllib moveEnemy.mtl
g default
v 0.000000 21.721695 59.774967
v 0.000000 -19.582496 -59.627077
v 0.000000 4.122005 -62.915218
v 0.000000 44.036676 -43.007616
v 61.139263 6.598310 -17.391877
v 42.218048 5.754652 -47.810038
v 32.300926 -53.015434 10.064402
v 0.000000 -58.468437 -10.033325
v 0.000000 -56.057799 28.315695
v 32.431168 -18.430382 51.748318
v 18.731840 -3.953664 -60.770042
v 20.361408 19.635211 -57.398826
v 50.642178 23.097318 -32.237315
v 34.488319 36.408973 -39.796543
v 50.692993 37.038113 -11.643414
v 0.000000 62.193816 -2.970689
v 0.000000 42.930634 41.319633
v 0.000000 58.848043 15.032511
v 23.145023 4.573109 59.423636
v 35.995201 47.190533 24.784035
v 24.565376 29.833588 51.471281
v 58.523392 22.227565 11.307001
v 22.903233 58.443731 -11.524773
v 0.000000 -43.645457 -43.467219
v 28.134912 -25.525804 -51.483663
v 50.911167 -19.416230 -33.389066
v 33.240383 -47.340732 -27.331707
v 0.000000 -21.797948 57.828384
v 56.472446 -27.821595 -4.576200
v 62.270145 -3.639564 13.988531
v 49.580288 -27.323371 29.323498
v 25.751295 -42.498145 41.227312
v 47.410561 8.544687 40.470086
v -61.139263 6.598310 -17.391877
v -42.218048 5.754652 -47.810038
v -32.300926 -53.015434 10.064402
v -32.431168 -18.430382 51.748318
v -18.731840 -3.953664 -60.770042
v -20.361408 19.635211 -57.398826
v -50.642178 23.097318 -32.237315
v -34.488319 36.408973 -39.796543
v -50.692993 37.038113 -11.643414
v -23.145023 4.573109 59.423636
v -35.995201 47.190533 24.784035
v -24.565376 29.833588 51.471281
v -58.523392 22.227565 11.307001
v -22.903233 58.443731 -11.524773
v -28.134912 -25.525804 -51.483663
v -50.911167 -19.416230 -33.389066
v -33.240383 -47.340732 -27.331707
v -56.472446 -27.821595 -4.576200
v -62.270145 -3.639564 13.988531
v -49.580288 -27.323371 29.323498
v -25.751295 -42.498145 41.227312
v -47.410561 8.544687 40.470086
v 0.000000 0.409212 100.657924
vt 0.588776 0.776624
vt 0.448156 0.639739
vt 0.667449 0.565053
vt 0.986905 0.607243
vt 0.982275 0.546274
vt 0.994220 0.432248
vt 0.879874 0.599082
vt 0.928837 0.711657
vt 0.785190 0.809211
vt 0.797796 0.868360
vt 0.560715 0.930576
vt 0.811701 0.398853
vt 0.749605 0.703409
vt 0.112035 0.572197
vt 0.159409 0.641545
vt 0.213280 0.749221
vt 0.322753 0.801690
vt 0.262935 0.502781
vt 0.136295 0.449199
vt 0.496508 0.946297
vt 0.375675 0.898474
vt 0.945200 0.378724
vt 0.699110 0.086907
vt 0.912555 0.237703
vt 0.805144 0.189826
vt 0.462438 0.449974
vt 0.622198 0.300353
vt 0.552528 0.099669
vt 0.386022 0.259246
vt 0.180934 0.261446
vt 0.218894 0.293706
vt 0.429586 0.053703
vt 0.322620 0.134302
vt 0.667449 0.565053
vt 0.448156 0.639739
vt 0.588776 0.776624
vt 0.982275 0.546274
vt 0.785190 0.809211
vt 0.928837 0.711657
vt 0.879874 0.599082
vt 0.560715 0.930576
vt 0.811701 0.398853
vt 0.749605 0.703409
vt 0.159409 0.641545
vt 0.322753 0.801690
vt 0.262935 0.502781
vt 0.136295 0.449199
vt 0.945200 0.378724
vt 0.805144 0.189826
vt 0.462438 0.449974
vt 0.622198 0.300353
vt 0.552528 0.099669
vt 0.386022 0.259246
vt 0.218894 0.293706
vt 0.322620 0.134302
vt 0.199818 0.772312
vt 0.184257 0.855841
vt 0.086229 0.818319
vt 0.175800 0.910561
vt 0.184257 0.855841
vn 0.935193 0.339785 -0.099804
vn 0.935193 0.339785 -0.099804
vn 0.935193 0.339785 -0.099804
vn 0.054120 -0.137197 -0.989064
vn 0.054120 -0.137197 -0.989064
vn 0.054120 -0.137197 -0.989064
vn 0.549873 0.338291 -0.763675
vn 0.549873 0.338291 -0.763675
vn 0.549873 0.338291 -0.763675
vn -0.097145 0.444210 -0.890640
vn -0.097145 0.444210 -0.890640
vn -0.097145 0.444210 -0.890640
vn 0.207516 0.619605 -0.756985
vn 0.207516 0.619605 -0.756985
vn 0.207516 0.619605 -0.756985
vn 0.167201 0.128157 -0.977558
vn 0.167201 0.128157 -0.977558
vn 0.167201 0.128157 -0.977558
vn 0.450280 0.095765 -0.887737
vn 0.450280 0.095765 -0.887737
vn 0.450280 0.095765 -0.887737
vn 0.571681 0.744100 -0.345683
vn 0.571681 0.744100 -0.345683
vn 0.571681 0.744100 -0.345683
vn 0.229477 0.811048 -0.538090
vn 0.229477 0.811048 -0.538090
vn 0.229477 0.811048 -0.538090
vn 0.849206 -0.009208 -0.527982
vn 0.849206 -0.009208 -0.527982
vn 0.849206 -0.009208 -0.527982
vn 0.846641 0.063216 -0.528396
vn 0.846641 0.063216 -0.528396
vn 0.846641 0.063216 -0.528396
vn 0.614046 0.340923 -0.711842
vn 0.614046 0.340923 -0.711842
vn 0.614046 0.340923 -0.711842
vn 0.902510 0.355602 -0.242947
vn 0.902510 0.355602 -0.242947
vn 0.902510 0.355602 -0.242947
vn 0.686675 0.601214 -0.408679
vn 0.686675 0.601214 -0.408679
vn 0.686675 0.601214 -0.408679
vn 0.038204 0.655958 0.753830
vn 0.038204 0.655958 0.753830
vn 0.038204 0.655958 0.753830
vn 0.177146 0.788638 0.588787
vn 0.177146 0.788638 0.588787
vn 0.177146 0.788638 0.588787
vn 0.687299 0.438166 0.579337
vn 0.687299 0.438166 0.579337
vn 0.687299 0.438166 0.579337
vn 0.222619 0.281339 0.933429
vn 0.222619 0.281339 0.933429
vn 0.222619 0.281339 0.933429
vn 0.579068 0.215014 0.786415
vn 0.579068 0.215014 0.786415
vn 0.579068 0.215014 0.786415
vn -0.005140 0.910710 -0.413015
vn -0.005140 0.910710 -0.413015
vn -0.005140 0.910710 -0.413015
vn 0.135450 0.847519 0.513191
vn 0.135450 0.847519 0.513191
vn 0.135450 0.847519 0.513191
vn 0.223427 0.958312 0.178096
vn 0.223427 0.958312 0.178096
vn 0.223427 0.958312 0.178096
vn 0.251616 0.946387 0.202588
vn 0.251616 0.946387 0.202588
vn 0.251616 0.946387 0.202588
vn 0.610098 0.791917 0.025454
vn 0.610098 0.791917 0.025454
vn 0.610098 0.791917 0.025454
vn 0.762256 0.423755 0.489283
vn 0.762256 0.423755 0.489283
vn 0.762256 0.423755 0.489283
vn 0.771182 0.621489 0.137947
vn 0.771182 0.621489 0.137947
vn 0.771182 0.621489 0.137947
vn 0.641869 -0.202111 -0.739699
vn 0.641869 -0.202111 -0.739699
vn 0.641869 -0.202111 -0.739699
vn 0.521062 -0.135629 -0.842674
vn 0.521062 -0.135629 -0.842674
vn 0.521062 -0.135629 -0.842674
vn 0.094687 -0.910075 -0.403483
vn 0.094687 -0.910074 -0.403484
vn 0.094687 -0.910075 -0.403483
vn 0.252026 -0.691044 -0.677452
vn 0.252026 -0.691044 -0.677452
vn 0.252026 -0.691044 -0.677452
vn 0.121605 -0.553375 -0.824007
vn 0.121605 -0.553375 -0.824008
vn 0.121605 -0.553375 -0.824007
vn 0.202987 -0.311185 -0.928418
vn 0.202987 -0.311185 -0.928418
vn 0.202987 -0.311185 -0.928418
vn 0.989437 0.144507 0.011488
vn 0.989437 0.144507 0.011488
vn 0.989437 0.144507 0.011488
vn 0.981944 -0.166543 -0.089722
vn 0.981944 -0.166543 -0.089722
vn 0.981944 -0.166543 -0.089722
vn 0.943970 -0.219689 -0.246287
vn 0.943970 -0.219689 -0.246287
vn 0.943970 -0.219689 -0.246287
vn 0.691523 -0.716554 -0.091362
vn 0.691523 -0.716554 -0.091362
vn 0.691523 -0.716554 -0.091362
vn 0.771224 -0.555476 -0.310902
vn 0.771224 -0.555476 -0.310902
vn 0.771224 -0.555476 -0.310902
vn 0.248451 -0.958587 -0.139221
vn 0.248451 -0.958587 -0.139221
vn 0.248451 -0.958587 -0.139221
vn 0.613073 -0.517452 -0.596979
vn 0.613073 -0.517452 -0.596979
vn 0.613073 -0.517452 -0.596979
vn 0.890762 0.172607 0.420416
vn 0.890762 0.172607 0.420416
vn 0.890762 0.172607 0.420416
vn 0.911336 -0.364856 0.190647
vn 0.911336 -0.364856 0.190647
vn 0.911336 -0.364856 0.190647
vn 0.843684 -0.112117 0.525001
vn 0.843684 -0.112117 0.525002
vn 0.843684 -0.112117 0.525001
vn 0.202644 -0.235355 0.950549
vn 0.202644 -0.235355 0.950549
vn 0.202644 -0.235355 0.950549
vn 0.616885 -0.013542 0.786937
vn 0.616885 -0.013542 0.786937
vn 0.616885 -0.013542 0.786937
vn 0.128380 -0.989772 0.062218
vn 0.128380 -0.989772 0.062218
vn 0.128380 -0.989772 0.062218
vn 0.757603 -0.631954 0.163316
vn 0.757603 -0.631954 0.163316
vn 0.757603 -0.631954 0.163316
vn -0.036190 -0.652237 0.757150
vn -0.036190 -0.652237 0.757150
vn -0.036190 -0.652237 0.757150
vn 0.209399 -0.439875 0.873305
vn 0.209399 -0.439875 0.873305
vn 0.209399 -0.439875 0.873305
vn 0.612249 -0.453158 0.647919
vn 0.612249 -0.453158 0.647919
vn 0.612249 -0.453158 0.647919
vn 0.622897 -0.692185 0.364525
vn 0.622897 -0.692185 0.364525
vn 0.622897 -0.692185 0.364525
vn 0.286987 -0.887746 0.359925
vn 0.286987 -0.887746 0.359925
vn 0.286987 -0.887746 0.359925
vn 0.754929 -0.152546 0.637818
vn 0.754929 -0.152546 0.637818
vn 0.754929 -0.152546 0.637818
vn -0.935193 0.339785 -0.099804
vn -0.935193 0.339785 -0.099804
vn -0.935193 0.339785 -0.099804
vn -0.054120 -0.137197 -0.989064
vn -0.054120 -0.137197 -0.989064
vn -0.054120 -0.137197 -0.989064
vn -0.549873 0.338291 -0.763675
vn -0.549873 0.338291 -0.763675
vn -0.549873 0.338291 -0.763675
vn 0.097145 0.444210 -0.890640
vn 0.097145 0.444210 -0.890640
vn 0.097145 0.444210 -0.890640
vn -0.207516 0.619605 -0.756985
vn -0.207516 0.619605 -0.756985
vn -0.207516 0.619605 -0.756985
vn -0.167201 0.128157 -0.977558
vn -0.167201 0.128157 -0.977558
vn -0.167201 0.128157 -0.977558
vn -0.450280 0.095765 -0.887737
vn -0.450280 0.095765 -0.887737
vn -0.450280 0.095765 -0.887737
vn -0.571681 0.744100 -0.345683
vn -0.571681 0.744100 -0.345683
vn -0.571681 0.744100 -0.345683
vn -0.229477 0.811048 -0.538090
vn -0.229477 0.811048 -0.538090
vn -0.229477 0.811048 -0.538090
vn -0.849206 -0.009208 -0.527982
vn -0.849206 -0.009208 -0.527982
vn -0.849206 -0.009208 -0.527982
vn -0.846641 0.063216 -0.528396
vn -0.846641 0.063216 -0.528396
vn -0.846641 0.063216 -0.528396
vn -0.614046 0.340923 -0.711842
vn -0.614046 0.340923 -0.711842
vn -0.614046 0.340923 -0.711842
vn -0.902510 0.355602 -0.242947
vn -0.902510 0.355602 -0.242947
vn -0.902510 0.355602 -0.242947
vn -0.686675 0.601214 -0.408679
vn -0.686675 0.601214 -0.408679
vn -0.686675 0.601214 -0.408679
vn -0.038204 0.655958 0.753830
vn -0.038204 0.655958 0.753830
vn -0.038204 0.655958 0.753830
vn -0.177146 0.788638 0.588787
vn -0.177146 0.788638 0.588787
vn -0.177146 0.788638 0.588787
vn -0.687299 0.438166 0.579337
vn -0.687299 0.438166 0.579337
vn -0.687299 0.438166 0.579337
vn -0.222619 0.281339 0.933429
vn -0.222619 0.281339 0.933429
vn -0.222619 0.281339 0.933429
vn -0.579068 0.215014 0.786415
vn -0.579068 0.215014 0.786415
vn -0.579068 0.215014 0.786415
vn 0.005140 0.910710 -0.413015
vn 0.005140 0.910710 -0.413015
vn 0.005140 0.910710 -0.413015
vn -0.135450 0.847519 0.513191
vn -0.135450 0.847519 0.513191
vn -0.135450 0.847519 0.513191
vn -0.223427 0.958312 0.178096
vn -0.223427 0.958312 0.178096
vn -0.223427 0.958312 0.178096
vn -0.251616 0.946387 0.202588
vn -0.251616 0.946387 0.202588
vn -0.251616 0.946387 0.202588
vn -0.610098 0.791917 0.025454
vn -0.610098 0.791917 0.025454
vn -0.610098 0.791917 0.025454
vn -0.762256 0.423755 0.489283
vn -0.762256 0.423755 0.489283
vn -0.762256 0.423755 0.489283
vn -0.771182 0.621489 0.137947
vn -0.771182 0.621489 0.137947
vn -0.771182 0.621489 0.137947
vn -0.641869 -0.202111 -0.739699
vn -0.641869 -0.202111 -0.739699
vn -0.641869 -0.202111 -0.739699
vn -0.521062 -0.135629 -0.842674
vn -0.521062 -0.135629 -0.842674
vn -0.521062 -0.135629 -0.842674
vn -0.094687 -0.910075 -0.403483
vn -0.094687 -0.910074 -0.403484
vn -0.094687 -0.910075 -0.403483
vn -0.252026 -0.691044 -0.677452
vn -0.252026 -0.691044 -0.677452
vn -0.252026 -0.691044 -0.677452
vn -0.121605 -0.553375 -0.824007
vn -0.121605 -0.553375 -0.824008
vn -0.121605 -0.553375 -0.824007
vn -0.202987 -0.311185 -0.928418
vn -0.202987 -0.311185 -0.928418
vn -0.202987 -0.311185 -0.928418
vn -0.989437 0.144507 0.011488
vn -0.989437 0.144507 0.011488
vn -0.989437 0.144507 0.011488
vn -0.981944 -0.166543 -0.089722
vn -0.981944 -0.166543 -0.089722
vn -0.981944 -0.166543 -0.089722
vn -0.943970 -0.219689 -0.246287
vn -0.943970 -0.219689 -0.246287
vn -0.943970 -0.219689 -0.246287
vn -0.691523 -0.716554 -0.091362
vn -0.691523 -0.716554 -0.091362
vn -0.691523 -0.716554 -0.091362
vn -0.771224 -0.555476 -0.310902
vn -0.771224 -0.555476 -0.310902
vn -0.771224 -0.555476 -0.310902
vn -0.248451 -0.958587 -0.139221
vn -0.248451 -0.958587 -0.139221
vn -0.248451 -0.958587 -0.139221
vn -0.613073 -0.517452 -0.596979
vn -0.613073 -0.517452 -0.596979
vn -0.613073 -0.517452 -0.596979
vn -0.890762 0.172607 0.420416
vn -0.890762 0.172607 0.420416
vn -0.890762 0.172607 0.420416
vn -0.911336 -0.364856 0.190647
vn -0.911336 -0.364856 0.190647
vn -0.911336 -0.364856 0.190647
vn -0.843684 -0.112117 0.525002
vn -0.843684 -0.112117 0.525002
vn -0.843684 -0.112117 0.525001
vn -0.202644 -0.235355 0.950549
vn -0.202644 -0.235355 0.950549
vn -0.202644 -0.235355 0.950549
vn -0.616885 -0.013542 0.786937
vn -0.616885 -0.013542 0.786937
vn -0.616885 -0.013542 0.786937
vn -0.128380 -0.989772 0.062218
vn -0.128380 -0.989772 0.062218
vn -0.128380 -0.989772 0.062218
vn -0.757603 -0.631954 0.163316
vn -0.757603 -0.631954 0.163316
vn -0.757603 -0.631954 0.163316
vn 0.036190 -0.652237 0.757150
vn 0.036190 -0.652237 0.757150
vn 0.036190 -0.652237 0.757150
vn -0.209399 -0.439875 0.873305
vn -0.209399 -0.439875 0.873305
vn -0.209399 -0.439875 0.873305
vn -0.612249 -0.453158 0.647919
vn -0.612249 -0.453158 0.647919
vn -0.612249 -0.453158 0.647919
vn -0.622897 -0.692185 0.364525
vn -0.622897 -0.692185 0.364525
vn -0.622897 -0.692185 0.364525
vn -0.286987 -0.887746 0.359925
vn -0.286987 -0.887746 0.359925
vn -0.286987 -0.887746 0.359925
vn -0.754929 -0.152546 0.637818
vn -0.754929 -0.152546 0.637818
vn -0.754929 -0.152545 0.637819
vn 0.699846 -0.634122 0.328793
vn 0.699846 -0.634122 0.328793
vn 0.699846 -0.634122 0.328793
vn 0.553173 0.738716 0.385096
vn 0.553173 0.738716 0.385096
vn 0.553173 0.738716 0.385096
vn -0.699846 -0.634122 0.328793
vn -0.699846 -0.634122 0.328793
vn -0.699846 -0.634122 0.328793
vn -0.553173 0.738716 0.385096
vn -0.553173 0.738716 0.385096
vn -0.553173 0.738716 0.385096
s off
g moveEnemy:Mesh
usemtl moveEnemy:initialShadingGroup
f 15/1/1 22/2/2 5/3/3
f 3/4/4 11/5/5 2/6/6
f 6/7/7 12/8/8 14/9/9
f 4/10/10 12/8/11 3/4/12
f 4/10/13 14/9/14 12/8/15
f 3/4/16 12/8/17 11/5/18
f 12/8/19 6/7/20 11/5/21
f 14/9/22 23/11/23 15/1/24
f 4/10/25 23/11/26 14/9/27
f 5/3/28 26/12/29 6/7/30
f 13/13/31 5/3/32 6/7/33
f 6/7/34 14/9/35 13/13/36
f 13/13/37 15/1/38 5/3/39
f 13/13/40 14/9/41 15/1/42
f 1/14/43 21/15/44 17/16/45
f 17/16/46 21/15/47 20/17/48
f 21/15/49 33/18/50 20/17/51
f 1/14/52 19/19/53 21/15/54
f 21/15/55 19/19/56 33/18/57
f 4/10/58 16/20/59 23/11/60
f 18/21/61 17/16/62 20/17/63
f 16/20/64 18/21/65 23/11/66
f 18/21/67 20/17/68 23/11/69
f 15/1/70 23/11/71 20/17/72
f 22/2/73 20/17/74 33/18/75
f 15/1/76 20/17/77 22/2/78
f 6/7/79 26/12/80 25/22/81
f 11/5/82 6/7/83 25/22/84
f 8/23/85 24/24/86 27/25/87
f 24/24/88 25/22/89 27/25/90
f 2/6/91 25/22/92 24/24/93
f 2/6/94 11/5/95 25/22/96
f 22/2/97 30/26/98 5/3/99
f 30/26/100 29/27/101 5/3/102
f 29/27/103 26/12/104 5/3/105
f 7/28/106 27/25/107 29/27/108
f 27/25/109 26/12/110 29/27/111
f 8/23/112 27/25/113 7/28/114
f 27/25/115 25/22/116 26/12/117
f 33/18/118 30/26/119 22/2/120
f 29/27/121 30/26/122 31/29/123
f 31/29/124 30/26/125 33/18/126
f 28/30/127 10/31/128 19/19/129
f 19/19/130 10/31/131 33/18/132
f 8/23/133 7/28/134 9/32/135
f 7/28/136 29/27/137 31/29/138
f 9/32/139 32/33/140 28/30/141
f 28/30/142 32/33/143 10/31/144
f 10/31/145 32/33/146 31/29/147
f 31/29/148 32/33/149 7/28/150
f 9/32/151 7/28/152 32/33/153
f 10/31/154 31/29/155 33/18/156
f 34/34/157 46/35/158 42/36/159
f 2/6/160 38/37/161 3/4/162
f 41/38/163 39/39/164 35/40/165
f 3/4/166 39/39/167 4/10/168
f 39/39/169 41/38/170 4/10/171
f 38/37/172 39/39/173 3/4/174
f 38/37/175 35/40/176 39/39/177
f 42/36/178 47/41/179 41/38/180
f 41/38/181 47/41/182 4/10/183
f 35/40/184 49/42/185 34/34/186
f 35/40/187 34/34/188 40/43/189
f 40/43/190 41/38/191 35/40/192
f 34/34/193 42/36/194 40/43/195
f 42/36/196 41/38/197 40/43/198
f 17/16/199 45/44/200 1/14/201
f 44/45/202 45/44/203 17/16/204
f 44/45/205 55/46/206 45/44/207
f 45/44/208 43/47/209 1/14/210
f 55/46/211 43/47/212 45/44/213
f 47/41/214 16/20/215 4/10/216
f 44/45/217 17/16/218 18/21/219
f 47/41/220 18/21/221 16/20/222
f 47/41/223 44/45/224 18/21/225
f 44/45/226 47/41/227 42/36/228
f 55/46/229 44/45/230 46/35/231
f 46/35/232 44/45/233 42/36/234
f 48/48/235 49/42/236 35/40/237
f 48/48/238 35/40/239 38/37/240
f 50/49/241 24/24/242 8/23/243
f 50/49/244 48/48/245 24/24/246
f 24/24/247 48/48/248 2/6/249
f 48/48/250 38/37/251 2/6/252
f 34/34/253 52/50/254 46/35/255
f 34/34/256 51/51/257 52/50/258
f 34/34/259 49/42/260 51/51/261
f 51/51/262 50/49/263 36/52/264
f 51/51/265 49/42/266 50/49/267
f 36/52/268 50/49/269 8/23/270
f 49/42/271 48/48/272 50/49/273
f 46/35/274 52/50/275 55/46/276
f 53/53/277 52/50/278 51/51/279
f 55/46/280 52/50/281 53/53/282
f 43/47/283 37/54/284 28/30/285
f 55/46/286 37/54/287 43/47/288
f 9/32/289 36/52/290 8/23/291
f 53/53/292 51/51/293 36/52/294
f 28/30/295 54/55/296 9/32/297
f 37/54/298 54/55/299 28/30/300
f 53/53/301 54/55/302 37/54/303
f 36/52/304 54/55/305 53/53/306
f 54/55/307 36/52/308 9/32/309
f 55/46/310 53/53/311 37/54/312
f 28/56/313 19/57/314 56/58/315
f 19/57/316 1/59/317 56/58/318
f 43/60/319 28/56/320 56/58/321
f 1/59/322 43/60/323 56/58/324
