# This file uses centimeters as units for non-parametric coordinates.

mtllib shootEnemy.mtl
g default
v 0.000000 25.191457 58.397510
v 0.000000 -23.047266 -58.375388
v 0.000000 0.423472 -63.048681
v 0.000000 41.437421 -45.517293
v 61.139263 5.566507 -17.749059
v 42.218048 2.939575 -48.065316
v 32.300926 -52.333592 13.157644
v 0.000000 -58.956397 -6.585515
v 0.000000 -54.299855 31.556000
v 32.431168 -15.362396 52.740537
v 18.731840 -7.512420 -60.433377
v 20.361408 16.233617 -58.452001
v 50.642178 21.166064 -33.536970
v 34.488319 34.011262 -41.864211
v 50.692993 36.291150 -13.796496
v 0.000000 61.912372 -6.614676
v 0.000000 45.281026 38.729576
v 0.000000 59.628666 11.553816
v 19.181650 8.051800 59.052945
v 35.995201 48.563392 21.972523
v 24.565376 32.802172 49.632179
v 58.523392 22.852689 9.983362
v 22.903233 57.666853 -14.933994
v 0.000000 -46.120624 -40.831522
v 28.134912 -28.502536 -49.897291
v 50.911167 -21.341821 -32.192334
v 33.240383 -48.862812 -24.506993
v 0.000000 -15.118279 58.213196
v 56.472446 -28.042165 -2.935937
v 62.270145 -2.812543 14.177977
v 49.580288 -25.555799 30.876128
v 25.751295 -40.005997 43.649786
v 47.410561 10.904472 39.899023
v -61.139263 5.566507 -17.749059
v -42.218048 2.939575 -48.065316
v -32.300926 -52.333592 13.157644
v -32.431168 -15.362396 52.740537
v -18.731840 -7.512420 -60.433377
v -20.361408 16.233617 -58.452001
v -50.642178 21.166064 -33.536970
v -34.488319 34.011262 -41.864211
v -50.692993 36.291150 -13.796496
v -19.181650 8.051800 59.052945
v -35.995201 48.563392 21.972523
v -24.565376 32.802172 49.632179
v -58.523392 22.852689 9.983362
v -22.903233 57.666853 -14.933994
v -28.134912 -28.502536 -49.897291
v -50.911167 -21.341821 -32.192334
v -33.240383 -48.862812 -24.506993
v -56.472446 -28.042165 -2.935937
v -62.270145 -2.812543 14.177977
v -49.580288 -25.555799 30.876128
v -25.751295 -40.005997 43.649786
v -47.410561 10.904472 39.899023
v -14.049216 19.591537 58.094881
v -14.558328 -5.940982 59.028991
v 14.049215 19.591537 58.094881
v 14.558328 -5.940982 59.028991
v 19.181654 7.726129 76.526050
v 14.558330 -6.266655 76.502088
v 14.049217 19.265865 75.567978
v 0.000003 24.865784 75.870607
v -14.049214 19.265864 75.567978
v -19.181646 7.726129 76.526050
v -14.558326 -6.266655 76.502088
v 0.000003 -15.443951 75.686294
v 24.469021 8.462821 76.345906
v 18.571291 -9.381224 76.339086
v 17.921846 23.064913 74.638993
v 0.000003 30.102093 74.590168
v -17.921843 23.064915 74.638993
v -24.469013 8.462821 76.345906
v -18.571285 -9.167885 77.211528
v -1.545878 -20.893597 76.094290
v 24.469017 9.264383 89.342321
v 18.571287 -8.579659 89.335516
v 17.921843 24.078017 88.500514
v 0.000000 30.903657 87.586598
v -17.921846 24.078020 88.500514
v -24.469017 9.264386 89.342336
v -18.571289 -8.366320 90.207959
v -1.545881 -20.092031 89.090720
v -0.000007 8.144539 89.339046
vt 0.588776 0.776624
vt 0.448156 0.639739
vt 0.667449 0.565053
vt 0.986905 0.607243
vt 0.982275 0.546274
vt 0.994220 0.432248
vt 0.879874 0.599082
vt 0.928837 0.711657
vt 0.785190 0.809211
vt 0.797796 0.868360
vt 0.560715 0.930576
vt 0.811701 0.398853
vt 0.749605 0.703409
vt 0.112035 0.572197
vt 0.159409 0.641545
vt 0.213280 0.749221
vt 0.322753 0.801690
vt 0.262935 0.502781
vt 0.123507 0.514034
vt 0.136295 0.449199
vt 0.496508 0.946297
vt 0.375675 0.898474
vt 0.945200 0.378724
vt 0.699110 0.086907
vt 0.912555 0.237703
vt 0.805144 0.189826
vt 0.462438 0.449974
vt 0.622198 0.300353
vt 0.552528 0.099669
vt 0.386022 0.259246
vt 0.180934 0.261446
vt 0.218894 0.293706
vt 0.159938 0.349757
vt 0.429586 0.053703
vt 0.322620 0.134302
vt 0.667449 0.565053
vt 0.448156 0.639739
vt 0.588776 0.776624
vt 0.982275 0.546274
vt 0.785190 0.809211
vt 0.928837 0.711657
vt 0.879874 0.599082
vt 0.560715 0.930576
vt 0.811701 0.398853
vt 0.749605 0.703409
vt 0.159409 0.641545
vt 0.322753 0.801690
vt 0.262935 0.502781
vt 0.136295 0.449199
vt 0.123507 0.514034
vt 0.945200 0.378724
vt 0.805144 0.189826
vt 0.462438 0.449974
vt 0.622198 0.300353
vt 0.552528 0.099669
vt 0.386022 0.259246
vt 0.218894 0.293706
vt 0.159938 0.349757
vt 0.322620 0.134302
vt 0.054322 0.868605
vt 0.063464 0.827380
vt 0.054322 0.868605
vt 0.048460 0.898325
vt 0.072937 0.784662
vt 0.060856 0.835475
vt 0.060856 0.835475
vt 0.072937 0.784662
vt 0.054322 0.868605
vt 0.054322 0.868605
vt 0.048460 0.898325
vt 0.048460 0.898325
vt 0.054322 0.868605
vt 0.054322 0.868605
vt 0.060856 0.835475
vt 0.060856 0.835475
vt 0.072937 0.784662
vt 0.072937 0.784662
vt 0.083666 0.739536
vt 0.083666 0.739536
vt 0.060856 0.835475
vt 0.072937 0.784662
vt 0.054322 0.868605
vt 0.048460 0.898325
vt 0.054322 0.868605
vt 0.060856 0.835475
vt 0.072937 0.784662
vt 0.083666 0.739536
vt 0.060856 0.835475
vt 0.072937 0.784662
vt 0.060856 0.835475
vt 0.072937 0.784662
vt 0.083666 0.739536
vn 0.935193 0.333344 -0.119568
vn 0.935193 0.333344 -0.119568
vn 0.935193 0.333344 -0.119568
vn 0.054120 -0.194992 -0.979311
vn 0.054120 -0.194992 -0.979311
vn 0.054120 -0.194992 -0.979311
vn 0.549873 0.292901 -0.782208
vn 0.549873 0.292901 -0.782208
vn 0.549873 0.292901 -0.782208
vn -0.097145 0.391188 -0.915169
vn -0.097145 0.391188 -0.915169
vn -0.097145 0.391188 -0.915169
vn 0.207516 0.574123 -0.792035
vn 0.207516 0.574123 -0.792035
vn 0.207516 0.574123 -0.792035
vn 0.167201 0.070580 -0.983393
vn 0.167201 0.070580 -0.983393
vn 0.167201 0.070580 -0.983393
vn 0.450280 0.043514 -0.891826
vn 0.450280 0.043514 -0.891826
vn 0.450280 0.043514 -0.891826
vn 0.571681 0.722536 -0.388746
vn 0.571681 0.722536 -0.388746
vn 0.571681 0.722536 -0.388746
vn 0.229477 0.778080 -0.584750
vn 0.229477 0.778080 -0.584750
vn 0.229477 0.778080 -0.584750
vn 0.849206 -0.040170 -0.526532
vn 0.849206 -0.040170 -0.526532
vn 0.849206 -0.040170 -0.526532
vn 0.846641 0.032105 -0.531195
vn 0.846641 0.032105 -0.531195
vn 0.846641 0.032105 -0.531195
vn 0.614046 0.298570 -0.730619
vn 0.614046 0.298570 -0.730619
vn 0.614046 0.298570 -0.730619
vn 0.902510 0.340735 -0.263393
vn 0.902510 0.340735 -0.263393
vn 0.902510 0.340735 -0.263393
vn 0.686675 0.576200 -0.443250
vn 0.686675 0.576200 -0.443250
vn 0.686675 0.576200 -0.443250
vn 0.038204 0.699058 0.714044
vn 0.038204 0.699058 0.714044
vn 0.038204 0.699058 0.714044
vn 0.177146 0.821825 0.541501
vn 0.177146 0.821825 0.541501
vn 0.177146 0.821825 0.541501
vn 0.687299 0.471402 0.552630
vn 0.687299 0.471402 0.552630
vn 0.687299 0.471402 0.552630
vn 0.222619 0.335621 0.915314
vn 0.281179 0.348864 0.893998
vn 0.222619 0.335621 0.915314
vn 0.222619 0.335621 0.915314
vn 0.579068 0.260785 0.772445
vn 0.579068 0.260785 0.772445
vn 0.579068 0.260785 0.772445
vn -0.005140 0.884908 -0.465738
vn -0.005140 0.884908 -0.465738
vn -0.005140 0.884908 -0.465738
vn 0.135450 0.876169 0.462581
vn 0.135450 0.876169 0.462581
vn 0.135450 0.876170 0.462580
vn 0.223427 0.967111 0.121562
vn 0.223427 0.967111 0.121562
vn 0.223427 0.967111 0.121562
vn 0.251616 0.956643 0.146711
vn 0.251616 0.956643 0.146711
vn 0.251616 0.956643 0.146712
vn 0.610098 0.792046 -0.021054
vn 0.610098 0.792046 -0.021054
vn 0.610098 0.792046 -0.021054
vn 0.762256 0.451732 0.463577
vn 0.762256 0.451732 0.463577
vn 0.762256 0.451732 0.463577
vn 0.771182 0.628512 0.101245
vn 0.771182 0.628512 0.101245
vn 0.771182 0.628512 0.101245
vn 0.641869 -0.245164 -0.726566
vn 0.641869 -0.245164 -0.726566
vn 0.641869 -0.245164 -0.726566
vn 0.521062 -0.184837 -0.833264
vn 0.521062 -0.184837 -0.833264
vn 0.521062 -0.184837 -0.833264
vn 0.094687 -0.932180 -0.349391
vn 0.094687 -0.932180 -0.349392
vn 0.094687 -0.932180 -0.349391
vn 0.252026 -0.729602 -0.635739
vn 0.252026 -0.729602 -0.635739
vn 0.252026 -0.729602 -0.635739
vn 0.121605 -0.600769 -0.790119
vn 0.121605 -0.600769 -0.790120
vn 0.121605 -0.600769 -0.790119
vn 0.202987 -0.365123 -0.908560
vn 0.202987 -0.365123 -0.908560
vn 0.202987 -0.365123 -0.908560
vn 0.989437 0.144932 0.002989
vn 0.989437 0.144932 0.002989
vn 0.989437 0.144932 0.002989
vn 0.981944 -0.171520 -0.079796
vn 0.981944 -0.171520 -0.079796
vn 0.981944 -0.171520 -0.079796
vn 0.943970 -0.233761 -0.232973
vn 0.943970 -0.233761 -0.232973
vn 0.943970 -0.233761 -0.232973
vn 0.691523 -0.720680 -0.049162
vn 0.691523 -0.720680 -0.049162
vn 0.691523 -0.720680 -0.049162
vn 0.771224 -0.572760 -0.277775
vn 0.771224 -0.572760 -0.277775
vn 0.771224 -0.572760 -0.277775
vn 0.248451 -0.965105 -0.082737
vn 0.248451 -0.965105 -0.082737
vn 0.248451 -0.965105 -0.082737
vn 0.613073 -0.551588 -0.565591
vn 0.613073 -0.551588 -0.565591
vn 0.613073 -0.551588 -0.565591
vn 0.890762 0.196976 0.409565
vn 0.890762 0.196976 0.409565
vn 0.890762 0.196976 0.409565
vn 0.911336 -0.353041 0.211725
vn 0.911336 -0.353041 0.211725
vn 0.911336 -0.353041 0.211725
vn 0.843684 -0.081120 0.530675
vn 0.843684 -0.081120 0.530676
vn 0.843684 -0.081120 0.530675
vn 0.202644 -0.179178 0.962720
vn 0.202644 -0.179178 0.962720
vn 0.202644 -0.179178 0.962721
vn 0.220303 -0.216849 0.951022
vn 0.616885 0.032653 0.786376
vn 0.616885 0.032653 0.786376
vn 0.616885 0.032653 0.786376
vn 0.128380 -0.984416 0.120183
vn 0.128380 -0.984416 0.120183
vn 0.128380 -0.984416 0.120183
vn 0.757603 -0.621283 0.200113
vn 0.757603 -0.621283 0.200113
vn 0.757603 -0.621283 0.200113
vn -0.036190 -0.606689 0.794115
vn -0.036190 -0.606689 0.794115
vn -0.036190 -0.606689 0.794115
vn 0.209399 -0.387878 0.897610
vn 0.209399 -0.387878 0.897610
vn 0.209399 -0.387878 0.897610
vn 0.612249 -0.414362 0.673391
vn 0.612249 -0.414362 0.673391
vn 0.612249 -0.414362 0.673391
vn 0.622897 -0.669605 0.404510
vn 0.622897 -0.669605 0.404510
vn 0.622897 -0.669605 0.404510
vn 0.286987 -0.865098 0.411392
vn 0.286987 -0.865098 0.411392
vn 0.286987 -0.865098 0.411392
vn 0.754929 -0.114860 0.645669
vn 0.754929 -0.114860 0.645669
vn 0.754929 -0.114860 0.645669
vn -0.935193 0.333344 -0.119568
vn -0.935193 0.333344 -0.119568
vn -0.935193 0.333344 -0.119568
vn -0.054120 -0.194992 -0.979311
vn -0.054120 -0.194992 -0.979311
vn -0.054120 -0.194992 -0.979311
vn -0.549873 0.292901 -0.782208
vn -0.549873 0.292901 -0.782208
vn -0.549873 0.292901 -0.782208
vn 0.097145 0.391188 -0.915169
vn 0.097145 0.391188 -0.915169
vn 0.097145 0.391188 -0.915169
vn -0.207516 0.574123 -0.792035
vn -0.207516 0.574123 -0.792035
vn -0.207516 0.574123 -0.792035
vn -0.167201 0.070580 -0.983393
vn -0.167201 0.070580 -0.983393
vn -0.167201 0.070580 -0.983393
vn -0.450280 0.043514 -0.891826
vn -0.450280 0.043514 -0.891826
vn -0.450280 0.043514 -0.891826
vn -0.571681 0.722536 -0.388746
vn -0.571681 0.722536 -0.388746
vn -0.571681 0.722536 -0.388746
vn -0.229477 0.778080 -0.584750
vn -0.229477 0.778080 -0.584750
vn -0.229477 0.778080 -0.584750
vn -0.849206 -0.040170 -0.526532
vn -0.849206 -0.040170 -0.526532
vn -0.849206 -0.040170 -0.526532
vn -0.846641 0.032105 -0.531195
vn -0.846641 0.032105 -0.531195
vn -0.846641 0.032105 -0.531195
vn -0.614046 0.298570 -0.730619
vn -0.614046 0.298570 -0.730619
vn -0.614046 0.298570 -0.730619
vn -0.902510 0.340735 -0.263393
vn -0.902510 0.340735 -0.263393
vn -0.902510 0.340735 -0.263393
vn -0.686675 0.576200 -0.443250
vn -0.686675 0.576200 -0.443250
vn -0.686675 0.576200 -0.443250
vn -0.038204 0.699058 0.714044
vn -0.038204 0.699058 0.714044
vn -0.038204 0.699058 0.714044
vn -0.177146 0.821825 0.541501
vn -0.177146 0.821825 0.541501
vn -0.177146 0.821825 0.541501
vn -0.687299 0.471402 0.552630
vn -0.687299 0.471402 0.552630
vn -0.687299 0.471402 0.552630
vn -0.222619 0.335621 0.915314
vn -0.222619 0.335621 0.915314
vn -0.281179 0.348864 0.893998
vn -0.222619 0.335621 0.915314
vn -0.579068 0.260785 0.772445
vn -0.579068 0.260785 0.772445
vn -0.579068 0.260785 0.772445
vn 0.005140 0.884908 -0.465738
vn 0.005140 0.884908 -0.465738
vn 0.005140 0.884908 -0.465738
vn -0.135450 0.876170 0.462580
vn -0.135450 0.876169 0.462581
vn -0.135450 0.876169 0.462581
vn -0.223427 0.967111 0.121562
vn -0.223427 0.967111 0.121562
vn -0.223427 0.967111 0.121562
vn -0.251616 0.956643 0.146711
vn -0.251616 0.956643 0.146712
vn -0.251616 0.956643 0.146711
vn -0.610098 0.792046 -0.021054
vn -0.610098 0.792046 -0.021054
vn -0.610098 0.792046 -0.021054
vn -0.762256 0.451732 0.463577
vn -0.762256 0.451732 0.463577
vn -0.762256 0.451732 0.463577
vn -0.771182 0.628512 0.101245
vn -0.771182 0.628512 0.101245
vn -0.771182 0.628512 0.101245
vn -0.641869 -0.245164 -0.726566
vn -0.641869 -0.245164 -0.726566
vn -0.641869 -0.245164 -0.726566
vn -0.521062 -0.184837 -0.833264
vn -0.521062 -0.184837 -0.833264
vn -0.521062 -0.184837 -0.833264
vn -0.094687 -0.932180 -0.349391
vn -0.094687 -0.932180 -0.349392
vn -0.094687 -0.932180 -0.349391
vn -0.252026 -0.729602 -0.635739
vn -0.252026 -0.729602 -0.635739
vn -0.252026 -0.729602 -0.635739
vn -0.121605 -0.600769 -0.790119
vn -0.121605 -0.600769 -0.790120
vn -0.121605 -0.600769 -0.790119
vn -0.202987 -0.365123 -0.908560
vn -0.202987 -0.365123 -0.908560
vn -0.202987 -0.365123 -0.908560
vn -0.989437 0.144932 0.002989
vn -0.989437 0.144932 0.002989
vn -0.989437 0.144932 0.002989
vn -0.981944 -0.171520 -0.079796
vn -0.981944 -0.171520 -0.079796
vn -0.981944 -0.171520 -0.079796
vn -0.943970 -0.233761 -0.232973
vn -0.943970 -0.233761 -0.232973
vn -0.943970 -0.233761 -0.232973
vn -0.691523 -0.720680 -0.049162
vn -0.691523 -0.720680 -0.049162
vn -0.691523 -0.720680 -0.049162
vn -0.771224 -0.572760 -0.277775
vn -0.771224 -0.572760 -0.277775
vn -0.771224 -0.572760 -0.277775
vn -0.248451 -0.965105 -0.082737
vn -0.248451 -0.965105 -0.082737
vn -0.248451 -0.965105 -0.082737
vn -0.613073 -0.551588 -0.565591
vn -0.613073 -0.551588 -0.565591
vn -0.613073 -0.551588 -0.565591
vn -0.890762 0.196976 0.409565
vn -0.890762 0.196976 0.409565
vn -0.890762 0.196976 0.409565
vn -0.911336 -0.353041 0.211725
vn -0.911336 -0.353041 0.211725
vn -0.911336 -0.353041 0.211725
vn -0.843684 -0.081120 0.530676
vn -0.843684 -0.081120 0.530676
vn -0.843684 -0.081120 0.530675
vn -0.202644 -0.179178 0.962721
vn -0.202644 -0.179178 0.962721
vn -0.202644 -0.179178 0.962720
vn -0.220303 -0.216849 0.951022
vn -0.616885 0.032653 0.786376
vn -0.616885 0.032653 0.786376
vn -0.616885 0.032653 0.786376
vn -0.128380 -0.984416 0.120183
vn -0.128380 -0.984416 0.120183
vn -0.128380 -0.984416 0.120183
vn -0.757603 -0.621283 0.200113
vn -0.757603 -0.621283 0.200113
vn -0.757603 -0.621283 0.200113
vn 0.036190 -0.606689 0.794115
vn 0.036190 -0.606689 0.794115
vn 0.036190 -0.606689 0.794115
vn -0.209399 -0.387878 0.897610
vn -0.209399 -0.387878 0.897610
vn -0.209399 -0.387878 0.897610
vn -0.612249 -0.414362 0.673391
vn -0.612249 -0.414362 0.673391
vn -0.612249 -0.414362 0.673391
vn -0.622897 -0.669605 0.404510
vn -0.622897 -0.669605 0.404510
vn -0.622897 -0.669605 0.404510
vn -0.286987 -0.865098 0.411392
vn -0.286987 -0.865098 0.411392
vn -0.286987 -0.865098 0.411392
vn -0.754929 -0.114860 0.645669
vn -0.754929 -0.114860 0.645669
vn -0.754929 -0.114860 0.645670
vn 0.001340 0.063957 0.997952
vn 0.007820 0.032701 0.999435
vn -0.000690 0.049652 0.998766
vn 0.000000 0.076773 0.997049
vn 0.949500 -0.313713 -0.005847
vn 0.949500 -0.313713 -0.005847
vn 0.949500 -0.313713 -0.005847
vn 0.949500 -0.313713 -0.005847
vn 0.913444 0.406895 0.007583
vn 0.913444 0.406895 0.007583
vn 0.913444 0.406895 0.007583
vn 0.913444 0.406895 0.007583
vn 0.370530 0.928659 0.017309
vn 0.370530 0.928659 0.017309
vn 0.370530 0.928659 0.017309
vn 0.370530 0.928659 0.017309
vn -0.370530 0.928659 0.017309
vn -0.370530 0.928659 0.017309
vn -0.370530 0.928659 0.017309
vn -0.370530 0.928659 0.017309
vn -0.913444 0.406895 0.007584
vn -0.913444 0.406895 0.007584
vn -0.913444 0.406895 0.007584
vn -0.913444 0.406895 0.007584
vn -0.949500 -0.313712 -0.005847
vn -0.949500 -0.313712 -0.005847
vn -0.949500 -0.313712 -0.005847
vn -0.949500 -0.313712 -0.005847
vn -0.533834 -0.845443 -0.015758
vn -0.533834 -0.845443 -0.015758
vn -0.533834 -0.845443 -0.015758
vn -0.533834 -0.845443 -0.015758
vn 0.533834 -0.845443 -0.015758
vn 0.533834 -0.845443 -0.015758
vn 0.533834 -0.845443 -0.015758
vn 0.533834 -0.845443 -0.015758
vn -0.033773 0.012127 -0.999356
vn -0.033773 0.012127 -0.999356
vn -0.033773 0.012127 -0.999356
vn -0.033773 0.012127 -0.999356
vn -0.057255 -0.126535 -0.990308
vn -0.057255 -0.126535 -0.990308
vn -0.057255 -0.126535 -0.990308
vn -0.057255 -0.126535 -0.990308
vn -0.087264 -0.201177 -0.975660
vn -0.087264 -0.201177 -0.975660
vn -0.087264 -0.201177 -0.975660
vn -0.087264 -0.201177 -0.975660
vn 0.087264 -0.201177 -0.975660
vn 0.087264 -0.201177 -0.975660
vn 0.087264 -0.201177 -0.975660
vn 0.087264 -0.201177 -0.975660
vn 0.057253 -0.126536 -0.990308
vn 0.057253 -0.126536 -0.990308
vn 0.057253 -0.126536 -0.990308
vn 0.057253 -0.126536 -0.990308
vn -0.046980 -0.042192 -0.998004
vn -0.046980 -0.042192 -0.998004
vn -0.046980 -0.042192 -0.998004
vn -0.046980 -0.042192 -0.998004
vn -0.103192 -0.064129 -0.992592
vn -0.103192 -0.064129 -0.992592
vn -0.103192 -0.064129 -0.992592
vn -0.103192 -0.064129 -0.992592
vn 0.040627 -0.016876 -0.999032
vn 0.040627 -0.016876 -0.999032
vn 0.040627 -0.016876 -0.999032
vn 0.040627 -0.016876 -0.999032
vn 0.949303 -0.313767 0.019352
vn 0.949303 -0.313767 0.019352
vn 0.949303 -0.313767 0.019352
vn 0.949303 -0.313767 0.019352
vn 0.914109 0.404546 -0.027333
vn 0.914109 0.404546 -0.027333
vn 0.914109 0.404546 -0.027333
vn 0.914109 0.404546 -0.027333
vn 0.361474 0.930261 -0.062853
vn 0.361474 0.930261 -0.062853
vn 0.361474 0.930261 -0.062853
vn 0.361474 0.930261 -0.062853
vn -0.361474 0.930261 -0.062854
vn -0.361474 0.930261 -0.062854
vn -0.361474 0.930261 -0.062854
vn -0.361474 0.930261 -0.062854
vn -0.914109 0.404546 -0.027334
vn -0.914109 0.404546 -0.027334
vn -0.914109 0.404546 -0.027334
vn -0.914109 0.404546 -0.027334
vn -0.948454 -0.316314 0.019508
vn -0.948454 -0.316314 0.019508
vn -0.948454 -0.316314 0.019508
vn -0.948454 -0.316314 0.019508
vn -0.564213 -0.824063 0.050824
vn -0.564213 -0.824063 0.050824
vn -0.564213 -0.824063 0.050824
vn -0.564213 -0.824063 0.050824
vn 0.495486 -0.866969 0.053471
vn 0.495486 -0.866969 0.053472
vn 0.495486 -0.866969 0.053472
vn 0.495486 -0.866969 0.053472
vn 0.013211 0.004638 0.999902
vn -0.001303 0.025534 0.999673
vn -0.000690 0.049652 0.998766
vn 0.007820 0.032701 0.999435
vn 0.015086 0.014936 0.999775
vn 0.007820 0.032701 0.999435
vn 0.001340 0.063957 0.997952
vn 0.002537 0.052504 0.998618
vn 0.013211 0.004638 0.999902
vn 0.007820 0.032701 0.999435
vn 0.015086 0.014936 0.999775
vn 0.023423 -0.010074 0.999675
s off
g shootEnemy:Mesh
usemtl shootEnemy:initialShadingGroup
f 15/1/1 22/2/2 5/3/3
f 3/4/4 11/5/5 2/6/6
f 6/7/7 12/8/8 14/9/9
f 4/10/10 12/8/11 3/4/12
f 4/10/13 14/9/14 12/8/15
f 3/4/16 12/8/17 11/5/18
f 12/8/19 6/7/20 11/5/21
f 14/9/22 23/11/23 15/1/24
f 4/10/25 23/11/26 14/9/27
f 5/3/28 26/12/29 6/7/30
f 13/13/31 5/3/32 6/7/33
f 6/7/34 14/9/35 13/13/36
f 13/13/37 15/1/38 5/3/39
f 13/13/40 14/9/41 15/1/42
f 1/14/43 21/15/44 17/16/45
f 17/16/46 21/15/47 20/17/48
f 21/15/49 33/18/50 20/17/51
f 1/14/52 58/19/53 19/20/54 21/15/55
f 21/15/56 19/20/57 33/18/58
f 4/10/59 16/21/60 23/11/61
f 18/22/62 17/16/63 20/17/64
f 16/21/65 18/22/66 23/11/67
f 18/22/68 20/17/69 23/11/70
f 15/1/71 23/11/72 20/17/73
f 22/2/74 20/17/75 33/18/76
f 15/1/77 20/17/78 22/2/79
f 6/7/80 26/12/81 25/23/82
f 11/5/83 6/7/84 25/23/85
f 8/24/86 24/25/87 27/26/88
f 24/25/89 25/23/90 27/26/91
f 2/6/92 25/23/93 24/25/94
f 2/6/95 11/5/96 25/23/97
f 22/2/98 30/27/99 5/3/100
f 30/27/101 29/28/102 5/3/103
f 29/28/104 26/12/105 5/3/106
f 7/29/107 27/26/108 29/28/109
f 27/26/110 26/12/111 29/28/112
f 8/24/113 27/26/114 7/29/115
f 27/26/116 25/23/117 26/12/118
f 33/18/119 30/27/120 22/2/121
f 29/28/122 30/27/123 31/30/124
f 31/30/125 30/27/126 33/18/127
f 28/31/128 10/32/129 19/20/130 59/33/131
f 19/20/132 10/32/133 33/18/134
f 8/24/135 7/29/136 9/34/137
f 7/29/138 29/28/139 31/30/140
f 9/34/141 32/35/142 28/31/143
f 28/31/144 32/35/145 10/32/146
f 10/32/147 32/35/148 31/30/149
f 31/30/150 32/35/151 7/29/152
f 9/34/153 7/29/154 32/35/155
f 10/32/156 31/30/157 33/18/158
f 34/36/159 46/37/160 42/38/161
f 2/6/162 38/39/163 3/4/164
f 41/40/165 39/41/166 35/42/167
f 3/4/168 39/41/169 4/10/170
f 39/41/171 41/40/172 4/10/173
f 38/39/174 39/41/175 3/4/176
f 38/39/177 35/42/178 39/41/179
f 42/38/180 47/43/181 41/40/182
f 41/40/183 47/43/184 4/10/185
f 35/42/186 49/44/187 34/36/188
f 35/42/189 34/36/190 40/45/191
f 40/45/192 41/40/193 35/42/194
f 34/36/195 42/38/196 40/45/197
f 42/38/198 41/40/199 40/45/200
f 17/16/201 45/46/202 1/14/203
f 44/47/204 45/46/205 17/16/206
f 44/47/207 55/48/208 45/46/209
f 45/46/210 43/49/211 56/50/212 1/14/213
f 55/48/214 43/49/215 45/46/216
f 47/43/217 16/21/218 4/10/219
f 44/47/220 17/16/221 18/22/222
f 47/43/223 18/22/224 16/21/225
f 47/43/226 44/47/227 18/22/228
f 44/47/229 47/43/230 42/38/231
f 55/48/232 44/47/233 46/37/234
f 46/37/235 44/47/236 42/38/237
f 48/51/238 49/44/239 35/42/240
f 48/51/241 35/42/242 38/39/243
f 50/52/244 24/25/245 8/24/246
f 50/52/247 48/51/248 24/25/249
f 24/25/250 48/51/251 2/6/252
f 48/51/253 38/39/254 2/6/255
f 34/36/256 52/53/257 46/37/258
f 34/36/259 51/54/260 52/53/261
f 34/36/262 49/44/263 51/54/264
f 51/54/265 50/52/266 36/55/267
f 51/54/268 49/44/269 50/52/270
f 36/55/271 50/52/272 8/24/273
f 49/44/274 48/51/275 50/52/276
f 46/37/277 52/53/278 55/48/279
f 53/56/280 52/53/281 51/54/282
f 55/48/283 52/53/284 53/56/285
f 43/49/286 37/57/287 28/31/288 57/58/289
f 55/48/290 37/57/291 43/49/292
f 9/34/293 36/55/294 8/24/295
f 53/56/296 51/54/297 36/55/298
f 28/31/299 54/59/300 9/34/301
f 37/57/302 54/59/303 28/31/304
f 53/56/305 54/59/306 37/57/307
f 36/55/308 54/59/309 53/56/310
f 54/59/311 36/55/312 9/34/313
f 55/48/314 53/56/315 37/57/316
f 80/60/317 84/61/318 78/62/319 79/63/320
f 59/64/321 19/65/322 60/66/323 61/67/324
f 19/65/325 58/68/326 62/69/327 60/66/328
f 58/68/329 1/70/330 63/71/331 62/69/332
f 1/70/333 56/72/334 64/73/335 63/71/336
f 56/72/337 43/74/338 65/75/339 64/73/340
f 43/74/341 57/76/342 66/77/343 65/75/344
f 57/76/345 28/78/346 67/79/347 66/77/348
f 28/78/349 59/64/350 61/67/351 67/79/352
f 61/67/353 60/66/354 68/80/355 69/81/356
f 60/66/357 62/69/358 70/82/359 68/80/360
f 62/69/361 63/71/362 71/83/363 70/82/364
f 63/71/365 64/73/366 72/84/367 71/83/368
f 64/73/369 65/75/370 73/85/371 72/84/372
f 65/75/373 66/77/374 74/86/375 73/85/376
f 66/77/377 67/79/378 75/87/379 74/86/380
f 67/79/381 61/67/382 69/81/383 75/87/384
f 69/81/385 68/80/386 76/88/387 77/89/388
f 68/80/389 70/82/390 78/62/391 76/88/392
f 70/82/393 71/83/394 79/63/395 78/62/396
f 71/83/397 72/84/398 80/60/399 79/63/400
f 72/84/401 73/85/402 81/90/403 80/60/404
f 73/85/405 74/86/406 82/91/407 81/90/408
f 74/86/409 75/87/410 83/92/411 82/91/412
f 75/87/413 69/81/414 77/89/415 83/92/416
f 77/89/417 76/88/418 78/62/419 84/61/420
f 82/91/421 84/61/422 80/60/423 81/90/424
f 77/89/425 84/61/426 82/91/427 83/92/428
